# Blender v2.91.2 OBJ File: ''
# www.blender.org
mtllib cylinderRotated2Smooth.mtl
o Cylinder
v 0.000000 0.000000 -0.050000
v 0.000000 -0.000000 0.050000
v 0.000000 0.600000 -0.050000
v 0.000000 0.600000 0.050000
v 0.093861 0.592613 -0.050000
v 0.093861 0.592613 0.050000
v 0.185410 0.570634 -0.050000
v 0.185410 0.570634 0.050000
v 0.272394 0.534604 -0.050000
v 0.272394 0.534604 0.050000
v 0.352671 0.485410 -0.050000
v 0.352671 0.485410 0.050000
v 0.424264 0.424264 -0.050000
v 0.424264 0.424264 0.050000
v 0.485410 0.352671 -0.050000
v 0.485410 0.352671 0.050000
v 0.534604 0.272394 -0.050000
v 0.534604 0.272394 0.050000
v 0.570634 0.185410 -0.050000
v 0.570634 0.185410 0.050000
v 0.592613 0.093861 -0.050000
v 0.592613 0.093861 0.050000
v 0.600000 -0.000000 -0.050000
v 0.600000 -0.000000 0.050000
v 0.592613 -0.093861 -0.050000
v 0.592613 -0.093861 0.050000
v 0.570634 -0.185410 -0.050000
v 0.570634 -0.185410 0.050000
v 0.534604 -0.272395 -0.050000
v 0.534604 -0.272395 0.050000
v 0.485410 -0.352671 -0.050000
v 0.485410 -0.352671 0.050000
v 0.424264 -0.424264 -0.050000
v 0.424264 -0.424264 0.050000
v 0.352671 -0.485410 -0.050000
v 0.352671 -0.485410 0.050000
v 0.272394 -0.534604 -0.050000
v 0.272394 -0.534604 0.050000
v 0.185410 -0.570634 -0.050000
v 0.185410 -0.570634 0.050000
v 0.093860 -0.592613 -0.050000
v 0.093860 -0.592613 0.050000
v -0.000000 -0.600000 -0.050000
v -0.000000 -0.600000 0.050000
v -0.093861 -0.592613 -0.050000
v -0.093861 -0.592613 0.050000
v -0.185411 -0.570634 -0.050000
v -0.185411 -0.570634 0.050000
v -0.272395 -0.534604 -0.050000
v -0.272395 -0.534604 0.050000
v -0.352672 -0.485410 -0.050000
v -0.352672 -0.485410 0.050000
v -0.424265 -0.424264 -0.050000
v -0.424265 -0.424264 0.050000
v -0.485411 -0.352671 -0.050000
v -0.485411 -0.352671 0.050000
v -0.534604 -0.272394 -0.050000
v -0.534604 -0.272394 0.050000
v -0.570634 -0.185409 -0.050000
v -0.570634 -0.185409 0.050000
v -0.592613 -0.093860 -0.050000
v -0.592613 -0.093860 0.050000
v -0.600000 0.000001 -0.050000
v -0.600000 0.000001 0.050000
v -0.592613 0.093862 -0.050000
v -0.592613 0.093862 0.050000
v -0.570634 0.185411 -0.050000
v -0.570634 0.185411 0.050000
v -0.534603 0.272395 -0.050000
v -0.534603 0.272395 0.050000
v -0.485410 0.352672 -0.050000
v -0.485410 0.352672 0.050000
v -0.424263 0.424265 -0.050000
v -0.424263 0.424265 0.050000
v -0.352670 0.485411 -0.050000
v -0.352670 0.485411 0.050000
v -0.272393 0.534604 -0.050000
v -0.272393 0.534604 0.050000
v -0.185409 0.570634 -0.050000
v -0.185409 0.570634 0.050000
v -0.093859 0.592613 -0.050000
v -0.093859 0.592613 0.050000
vt 0.750000 0.250000
vt 0.750000 0.490000
vt 0.787544 0.487045
vt 0.250000 0.250000
vt 0.287544 0.487045
vt 0.250000 0.490000
vt 1.000000 0.500000
vt 1.000000 1.000000
vt 0.975000 1.000000
vt 0.975000 0.500000
vt 0.824164 0.478254
vt 0.324164 0.478254
vt 0.950000 1.000000
vt 0.950000 0.500000
vt 0.858958 0.463842
vt 0.358958 0.463842
vt 0.925000 1.000000
vt 0.925000 0.500000
vt 0.891068 0.444164
vt 0.391068 0.444164
vt 0.900000 1.000000
vt 0.900000 0.500000
vt 0.919706 0.419706
vt 0.419706 0.419706
vt 0.875000 1.000000
vt 0.875000 0.500000
vt 0.944164 0.391068
vt 0.444164 0.391068
vt 0.850000 1.000000
vt 0.850000 0.500000
vt 0.963842 0.358958
vt 0.463842 0.358958
vt 0.825000 1.000000
vt 0.825000 0.500000
vt 0.978254 0.324164
vt 0.478254 0.324164
vt 0.800000 1.000000
vt 0.800000 0.500000
vt 0.987045 0.287544
vt 0.487045 0.287544
vt 0.775000 1.000000
vt 0.775000 0.500000
vt 0.990000 0.250000
vt 0.490000 0.250000
vt 0.750000 1.000000
vt 0.750000 0.500000
vt 0.987045 0.212456
vt 0.487045 0.212456
vt 0.725000 1.000000
vt 0.725000 0.500000
vt 0.978254 0.175836
vt 0.478254 0.175836
vt 0.700000 1.000000
vt 0.700000 0.500000
vt 0.963842 0.141042
vt 0.463842 0.141042
vt 0.675000 1.000000
vt 0.675000 0.500000
vt 0.944164 0.108931
vt 0.444164 0.108931
vt 0.650000 1.000000
vt 0.650000 0.500000
vt 0.919706 0.080294
vt 0.419706 0.080294
vt 0.625000 1.000000
vt 0.625000 0.500000
vt 0.891068 0.055836
vt 0.391068 0.055836
vt 0.600000 1.000000
vt 0.600000 0.500000
vt 0.858958 0.036158
vt 0.358958 0.036158
vt 0.575000 1.000000
vt 0.575000 0.500000
vt 0.824164 0.021746
vt 0.324164 0.021746
vt 0.550000 1.000000
vt 0.550000 0.500000
vt 0.787544 0.012955
vt 0.287544 0.012955
vt 0.525000 1.000000
vt 0.525000 0.500000
vt 0.750000 0.010000
vt 0.250000 0.010000
vt 0.500000 1.000000
vt 0.500000 0.500000
vt 0.712456 0.012955
vt 0.212456 0.012955
vt 0.475000 1.000000
vt 0.475000 0.500000
vt 0.675836 0.021747
vt 0.175836 0.021747
vt 0.450000 1.000000
vt 0.450000 0.500000
vt 0.641042 0.036159
vt 0.141042 0.036159
vt 0.425000 1.000000
vt 0.425000 0.500000
vt 0.608931 0.055836
vt 0.108931 0.055836
vt 0.400000 1.000000
vt 0.400000 0.500000
vt 0.580294 0.080295
vt 0.080294 0.080295
vt 0.375000 1.000000
vt 0.375000 0.500000
vt 0.555836 0.108932
vt 0.055836 0.108932
vt 0.350000 1.000000
vt 0.350000 0.500000
vt 0.536158 0.141043
vt 0.036158 0.141043
vt 0.325000 1.000000
vt 0.325000 0.500000
vt 0.521746 0.175836
vt 0.021746 0.175836
vt 0.300000 1.000000
vt 0.300000 0.500000
vt 0.512955 0.212456
vt 0.012955 0.212456
vt 0.275000 1.000000
vt 0.275000 0.500000
vt 0.510000 0.250000
vt 0.010000 0.250000
vt 0.250000 1.000000
vt 0.250000 0.500000
vt 0.512955 0.287545
vt 0.012955 0.287545
vt 0.225000 1.000000
vt 0.225000 0.500000
vt 0.521747 0.324164
vt 0.021747 0.324164
vt 0.200000 1.000000
vt 0.200000 0.500000
vt 0.536159 0.358958
vt 0.036159 0.358958
vt 0.175000 1.000000
vt 0.175000 0.500000
vt 0.555836 0.391069
vt 0.055836 0.391069
vt 0.150000 1.000000
vt 0.150000 0.500000
vt 0.580295 0.419706
vt 0.080295 0.419706
vt 0.125000 1.000000
vt 0.125000 0.500000
vt 0.608932 0.444164
vt 0.108932 0.444164
vt 0.100000 1.000000
vt 0.100000 0.500000
vt 0.641043 0.463842
vt 0.141043 0.463842
vt 0.075000 1.000000
vt 0.075000 0.500000
vt 0.675836 0.478254
vt 0.175836 0.478254
vt 0.050000 1.000000
vt 0.050000 0.500000
vt 0.712456 0.487045
vt 0.212456 0.487045
vt 0.025000 1.000000
vt 0.025000 0.500000
vt 0.000000 1.000000
vt 0.000000 0.500000
vn 0.0000 0.0000 -1.0000
vn 0.0000 0.7239 -0.6898
vn 0.1132 0.7150 -0.6898
vn 0.0000 0.0000 1.0000
vn 0.1132 0.7150 0.6898
vn 0.0000 0.7239 0.6898
vn 0.2237 0.6885 -0.6898
vn 0.2237 0.6885 0.6898
vn 0.3287 0.6450 -0.6898
vn 0.3287 0.6450 0.6898
vn 0.4255 0.5857 -0.6898
vn 0.4255 0.5857 0.6898
vn 0.5119 0.5119 -0.6898
vn 0.5119 0.5119 0.6898
vn 0.5857 0.4255 -0.6898
vn 0.5857 0.4255 0.6898
vn 0.6450 0.3287 -0.6898
vn 0.6450 0.3287 0.6898
vn 0.6885 0.2237 -0.6898
vn 0.6885 0.2237 0.6898
vn 0.7150 0.1132 -0.6898
vn 0.7150 0.1132 0.6898
vn 0.7239 0.0000 -0.6898
vn 0.7239 0.0000 0.6898
vn 0.7150 -0.1132 -0.6898
vn 0.7150 -0.1132 0.6898
vn 0.6885 -0.2237 -0.6898
vn 0.6885 -0.2237 0.6898
vn 0.6450 -0.3287 -0.6898
vn 0.6450 -0.3287 0.6898
vn 0.5857 -0.4255 -0.6898
vn 0.5857 -0.4255 0.6898
vn 0.5119 -0.5119 -0.6898
vn 0.5119 -0.5119 0.6898
vn 0.4255 -0.5857 -0.6898
vn 0.4255 -0.5857 0.6898
vn 0.3287 -0.6450 -0.6898
vn 0.3287 -0.6450 0.6898
vn 0.2237 -0.6885 -0.6898
vn 0.2237 -0.6885 0.6898
vn 0.1132 -0.7150 -0.6898
vn 0.1132 -0.7150 0.6898
vn 0.0000 -0.7239 -0.6898
vn 0.0000 -0.7239 0.6898
vn -0.1132 -0.7150 -0.6898
vn -0.1132 -0.7150 0.6898
vn -0.2237 -0.6885 -0.6898
vn -0.2237 -0.6885 0.6898
vn -0.3287 -0.6450 -0.6898
vn -0.3287 -0.6450 0.6898
vn -0.4255 -0.5857 -0.6898
vn -0.4255 -0.5857 0.6898
vn -0.5119 -0.5119 -0.6898
vn -0.5119 -0.5119 0.6898
vn -0.5857 -0.4255 -0.6898
vn -0.5857 -0.4255 0.6898
vn -0.6450 -0.3287 -0.6898
vn -0.6450 -0.3287 0.6898
vn -0.6885 -0.2237 -0.6898
vn -0.6885 -0.2237 0.6898
vn -0.7150 -0.1132 -0.6898
vn -0.7150 -0.1132 0.6898
vn -0.7239 0.0000 -0.6898
vn -0.7239 0.0000 0.6898
vn -0.7150 0.1132 -0.6898
vn -0.7150 0.1132 0.6898
vn -0.6885 0.2237 -0.6898
vn -0.6885 0.2237 0.6898
vn -0.6450 0.3287 -0.6898
vn -0.6450 0.3287 0.6898
vn -0.5857 0.4255 -0.6898
vn -0.5857 0.4255 0.6898
vn -0.5119 0.5119 -0.6898
vn -0.5119 0.5119 0.6898
vn -0.4255 0.5857 -0.6898
vn -0.4255 0.5857 0.6898
vn -0.3287 0.6450 -0.6898
vn -0.3287 0.6450 0.6898
vn -0.2237 0.6885 -0.6898
vn -0.2237 0.6885 0.6898
vn -0.1132 0.7150 -0.6898
vn -0.1132 0.7150 0.6898
usemtl None
s 1
f 1/1/1 3/2/2 5/3/3
f 2/4/4 6/5/5 4/6/6
f 3/7/2 4/8/6 6/9/5 5/10/3
f 1/1/1 5/3/3 7/11/7
f 2/4/4 8/12/8 6/5/5
f 5/10/3 6/9/5 8/13/8 7/14/7
f 1/1/1 7/11/7 9/15/9
f 2/4/4 10/16/10 8/12/8
f 7/14/7 8/13/8 10/17/10 9/18/9
f 1/1/1 9/15/9 11/19/11
f 2/4/4 12/20/12 10/16/10
f 9/18/9 10/17/10 12/21/12 11/22/11
f 1/1/1 11/19/11 13/23/13
f 2/4/4 14/24/14 12/20/12
f 11/22/11 12/21/12 14/25/14 13/26/13
f 1/1/1 13/23/13 15/27/15
f 2/4/4 16/28/16 14/24/14
f 13/26/13 14/25/14 16/29/16 15/30/15
f 1/1/1 15/27/15 17/31/17
f 2/4/4 18/32/18 16/28/16
f 15/30/15 16/29/16 18/33/18 17/34/17
f 1/1/1 17/31/17 19/35/19
f 2/4/4 20/36/20 18/32/18
f 17/34/17 18/33/18 20/37/20 19/38/19
f 1/1/1 19/35/19 21/39/21
f 2/4/4 22/40/22 20/36/20
f 19/38/19 20/37/20 22/41/22 21/42/21
f 1/1/1 21/39/21 23/43/23
f 2/4/4 24/44/24 22/40/22
f 21/42/21 22/41/22 24/45/24 23/46/23
f 1/1/1 23/43/23 25/47/25
f 2/4/4 26/48/26 24/44/24
f 23/46/23 24/45/24 26/49/26 25/50/25
f 1/1/1 25/47/25 27/51/27
f 2/4/4 28/52/28 26/48/26
f 25/50/25 26/49/26 28/53/28 27/54/27
f 1/1/1 27/51/27 29/55/29
f 2/4/4 30/56/30 28/52/28
f 27/54/27 28/53/28 30/57/30 29/58/29
f 1/1/1 29/55/29 31/59/31
f 2/4/4 32/60/32 30/56/30
f 29/58/29 30/57/30 32/61/32 31/62/31
f 1/1/1 31/59/31 33/63/33
f 2/4/4 34/64/34 32/60/32
f 31/62/31 32/61/32 34/65/34 33/66/33
f 1/1/1 33/63/33 35/67/35
f 2/4/4 36/68/36 34/64/34
f 33/66/33 34/65/34 36/69/36 35/70/35
f 1/1/1 35/67/35 37/71/37
f 2/4/4 38/72/38 36/68/36
f 35/70/35 36/69/36 38/73/38 37/74/37
f 1/1/1 37/71/37 39/75/39
f 2/4/4 40/76/40 38/72/38
f 37/74/37 38/73/38 40/77/40 39/78/39
f 1/1/1 39/75/39 41/79/41
f 2/4/4 42/80/42 40/76/40
f 39/78/39 40/77/40 42/81/42 41/82/41
f 1/1/1 41/79/41 43/83/43
f 2/4/4 44/84/44 42/80/42
f 41/82/41 42/81/42 44/85/44 43/86/43
f 1/1/1 43/83/43 45/87/45
f 2/4/4 46/88/46 44/84/44
f 43/86/43 44/85/44 46/89/46 45/90/45
f 1/1/1 45/87/45 47/91/47
f 2/4/4 48/92/48 46/88/46
f 45/90/45 46/89/46 48/93/48 47/94/47
f 1/1/1 47/91/47 49/95/49
f 2/4/4 50/96/50 48/92/48
f 47/94/47 48/93/48 50/97/50 49/98/49
f 1/1/1 49/95/49 51/99/51
f 2/4/4 52/100/52 50/96/50
f 49/98/49 50/97/50 52/101/52 51/102/51
f 1/1/1 51/99/51 53/103/53
f 2/4/4 54/104/54 52/100/52
f 51/102/51 52/101/52 54/105/54 53/106/53
f 1/1/1 53/103/53 55/107/55
f 2/4/4 56/108/56 54/104/54
f 53/106/53 54/105/54 56/109/56 55/110/55
f 1/1/1 55/107/55 57/111/57
f 2/4/4 58/112/58 56/108/56
f 55/110/55 56/109/56 58/113/58 57/114/57
f 1/1/1 57/111/57 59/115/59
f 2/4/4 60/116/60 58/112/58
f 57/114/57 58/113/58 60/117/60 59/118/59
f 1/1/1 59/115/59 61/119/61
f 2/4/4 62/120/62 60/116/60
f 59/118/59 60/117/60 62/121/62 61/122/61
f 1/1/1 61/119/61 63/123/63
f 2/4/4 64/124/64 62/120/62
f 61/122/61 62/121/62 64/125/64 63/126/63
f 1/1/1 63/123/63 65/127/65
f 2/4/4 66/128/66 64/124/64
f 63/126/63 64/125/64 66/129/66 65/130/65
f 1/1/1 65/127/65 67/131/67
f 2/4/4 68/132/68 66/128/66
f 65/130/65 66/129/66 68/133/68 67/134/67
f 1/1/1 67/131/67 69/135/69
f 2/4/4 70/136/70 68/132/68
f 67/134/67 68/133/68 70/137/70 69/138/69
f 1/1/1 69/135/69 71/139/71
f 2/4/4 72/140/72 70/136/70
f 69/138/69 70/137/70 72/141/72 71/142/71
f 1/1/1 71/139/71 73/143/73
f 2/4/4 74/144/74 72/140/72
f 71/142/71 72/141/72 74/145/74 73/146/73
f 1/1/1 73/143/73 75/147/75
f 2/4/4 76/148/76 74/144/74
f 73/146/73 74/145/74 76/149/76 75/150/75
f 1/1/1 75/147/75 77/151/77
f 2/4/4 78/152/78 76/148/76
f 75/150/75 76/149/76 78/153/78 77/154/77
f 1/1/1 77/151/77 79/155/79
f 2/4/4 80/156/80 78/152/78
f 77/154/77 78/153/78 80/157/80 79/158/79
f 1/1/1 79/155/79 81/159/81
f 2/4/4 82/160/82 80/156/80
f 79/158/79 80/157/80 82/161/82 81/162/81
f 1/1/1 81/159/81 3/2/2
f 2/4/4 4/6/6 82/160/82
f 81/162/81 82/161/82 4/163/6 3/164/2
